{
    "asset" : {
        "generator" : "Khronos glTF Blender I/O v1.8.19",
        "version" : "2.0"
    },
    "scene" : 0,
    "scenes" : [
        {
            "name" : "Scene",
            "nodes" : [
                0
            ]
        }
    ],
    "nodes" : [
        {
            "mesh" : 0,
            "name" : "\u529e\u516c\u697c43"
        }
    ],
    "materials" : [
        {
            "doubleSided" : true,
            "name" : "00\u5c42\u677f.004",
            "pbrMetallicRoughness" : {
                "baseColorTexture" : {
                    "index" : 0
                },
                "metallicFactor" : 0,
                "roughnessFactor" : 0.858578622341156
            }
        },
        {
            "doubleSided" : true,
            "name" : "00\u8e0f\u6b65.002",
            "pbrMetallicRoughness" : {
                "baseColorTexture" : {
                    "index" : 1
                },
                "metallicFactor" : 0,
                "roughnessFactor" : 0.858578622341156
            }
        },
        {
            "doubleSided" : true,
            "name" : "00dx-\u53cc\u9ec4\u7ebf",
            "pbrMetallicRoughness" : {
                "baseColorFactor" : [
                    0.4588235914707184,
                    0.4274510443210602,
                    0.4235294759273529,
                    1
                ],
                "metallicFactor" : 0,
                "roughnessFactor" : 0.858578622341156
            }
        },
        {
            "doubleSided" : true,
            "name" : "00\u73bb\u7483.003",
            "pbrMetallicRoughness" : {
                "baseColorFactor" : [
                    0.5647059082984924,
                    0.7372549176216125,
                    0.835294246673584,
                    1
                ],
                "metallicFactor" : 0,
                "roughnessFactor" : 0.9291338324546814
            }
        },
        {
            "doubleSided" : true,
            "name" : "00\u5206\u5272.001",
            "pbrMetallicRoughness" : {
                "baseColorFactor" : [
                    0.5882353186607361,
                    0.5882353186607361,
                    0.5882353186607361,
                    1
                ],
                "metallicFactor" : 0,
                "roughnessFactor" : 0.858578622341156
            }
        },
        {
            "doubleSided" : true,
            "name" : "00\u5206\u5272.006",
            "pbrMetallicRoughness" : {
                "baseColorFactor" : [
                    0.5882353186607361,
                    0.5882353186607361,
                    0.5882353186607361,
                    1
                ],
                "metallicFactor" : 0,
                "roughnessFactor" : 0.858578622341156
            }
        },
        {
            "doubleSided" : true,
            "name" : "00\u7a97\u6846.003",
            "pbrMetallicRoughness" : {
                "baseColorFactor" : [
                    0.250980406999588,
                    0.2980392277240753,
                    0.3490196168422699,
                    1
                ],
                "metallicFactor" : 0,
                "roughnessFactor" : 0.858578622341156
            }
        },
        {
            "doubleSided" : true,
            "name" : "00\u7a97\u6846.004",
            "pbrMetallicRoughness" : {
                "baseColorFactor" : [
                    0.6039215922355652,
                    0.6039215922355652,
                    0.6039215922355652,
                    1
                ],
                "metallicFactor" : 0,
                "roughnessFactor" : 0.858578622341156
            }
        }
    ],
    "meshes" : [
        {
            "name" : "\u7f51\u683c.538",
            "primitives" : [
                {
                    "attributes" : {
                        "POSITION" : 0,
                        "NORMAL" : 1,
                        "TEXCOORD_0" : 2
                    },
                    "indices" : 3,
                    "material" : 0
                },
                {
                    "attributes" : {
                        "POSITION" : 4,
                        "NORMAL" : 5,
                        "TEXCOORD_0" : 6
                    },
                    "indices" : 7,
                    "material" : 1
                },
                {
                    "attributes" : {
                        "POSITION" : 8,
                        "NORMAL" : 9,
                        "TEXCOORD_0" : 10
                    },
                    "indices" : 11,
                    "material" : 2
                },
                {
                    "attributes" : {
                        "POSITION" : 12,
                        "NORMAL" : 13,
                        "TEXCOORD_0" : 14
                    },
                    "indices" : 15,
                    "material" : 3
                },
                {
                    "attributes" : {
                        "POSITION" : 16,
                        "NORMAL" : 17,
                        "TEXCOORD_0" : 18
                    },
                    "indices" : 19,
                    "material" : 4
                },
                {
                    "attributes" : {
                        "POSITION" : 20,
                        "NORMAL" : 21,
                        "TEXCOORD_0" : 22
                    },
                    "indices" : 23,
                    "material" : 5
                },
                {
                    "attributes" : {
                        "POSITION" : 24,
                        "NORMAL" : 25,
                        "TEXCOORD_0" : 26
                    },
                    "indices" : 27,
                    "material" : 6
                },
                {
                    "attributes" : {
                        "POSITION" : 28,
                        "NORMAL" : 29,
                        "TEXCOORD_0" : 30
                    },
                    "indices" : 31,
                    "material" : 7
                }
            ]
        }
    ],
    "textures" : [
        {
            "sampler" : 0,
            "source" : 0
        },
        {
            "sampler" : 0,
            "source" : 1
        }
    ],
    "images" : [
        {
            "bufferView" : 4,
            "mimeType" : "image/jpeg",
            "name" : "Image_0"
        },
        {
            "bufferView" : 9,
            "mimeType" : "image/jpeg",
            "name" : "Image_1"
        }
    ],
    "accessors" : [
        {
            "bufferView" : 0,
            "componentType" : 5126,
            "count" : 78,
            "max" : [
                36.57473373413086,
                8.25,
                4.05612850189209
            ],
            "min" : [
                -36.574615478515625,
                4.76837158203125e-06,
                -5.3386335372924805
            ],
            "type" : "VEC3"
        },
        {
            "bufferView" : 1,
            "componentType" : 5126,
            "count" : 78,
            "type" : "VEC3"
        },
        {
            "bufferView" : 2,
            "componentType" : 5126,
            "count" : 78,
            "type" : "VEC2"
        },
        {
            "bufferView" : 3,
            "componentType" : 5123,
            "count" : 108,
            "type" : "SCALAR"
        },
        {
            "bufferView" : 5,
            "componentType" : 5126,
            "count" : 28,
            "max" : [
                36.66538619995117,
                0.15141916275024414,
                5.9886932373046875
            ],
            "min" : [
                -36.70829772949219,
                3.814697265625e-06,
                4.056130409240723
            ],
            "type" : "VEC3"
        },
        {
            "bufferView" : 6,
            "componentType" : 5126,
            "count" : 28,
            "type" : "VEC3"
        },
        {
            "bufferView" : 7,
            "componentType" : 5126,
            "count" : 28,
            "type" : "VEC2"
        },
        {
            "bufferView" : 8,
            "componentType" : 5123,
            "count" : 36,
            "type" : "SCALAR"
        },
        {
            "bufferView" : 10,
            "componentType" : 5126,
            "count" : 5603,
            "max" : [
                36.912803649902344,
                7.45000696182251,
                4.506239891052246
            ],
            "min" : [
                -36.962242126464844,
                0,
                3.9062368869781494
            ],
            "type" : "VEC3"
        },
        {
            "bufferView" : 11,
            "componentType" : 5126,
            "count" : 5603,
            "type" : "VEC3"
        },
        {
            "bufferView" : 12,
            "componentType" : 5126,
            "count" : 5603,
            "type" : "VEC2"
        },
        {
            "bufferView" : 13,
            "componentType" : 5123,
            "count" : 7344,
            "type" : "SCALAR"
        },
        {
            "bufferView" : 14,
            "componentType" : 5126,
            "count" : 15654,
            "max" : [
                36.381263732910156,
                7.450006484985352,
                4.506239891052246
            ],
            "min" : [
                -36.458740234375,
                4.76837158203125e-06,
                4.062239646911621
            ],
            "type" : "VEC3"
        },
        {
            "bufferView" : 15,
            "componentType" : 5126,
            "count" : 15654,
            "type" : "VEC3"
        },
        {
            "bufferView" : 16,
            "componentType" : 5126,
            "count" : 15654,
            "type" : "VEC2"
        },
        {
            "bufferView" : 17,
            "componentType" : 5123,
            "count" : 22188,
            "type" : "SCALAR"
        },
        {
            "bufferView" : 18,
            "componentType" : 5126,
            "count" : 401,
            "max" : [
                37.22481155395508,
                8.850001335144043,
                4.706191062927246
            ],
            "min" : [
                -37.224815368652344,
                4.76837158203125e-06,
                -5.9886932373046875
            ],
            "type" : "VEC3"
        },
        {
            "bufferView" : 19,
            "componentType" : 5126,
            "count" : 401,
            "type" : "VEC3"
        },
        {
            "bufferView" : 20,
            "componentType" : 5126,
            "count" : 401,
            "type" : "VEC2"
        },
        {
            "bufferView" : 21,
            "componentType" : 5123,
            "count" : 468,
            "type" : "SCALAR"
        },
        {
            "bufferView" : 22,
            "componentType" : 5126,
            "count" : 5584,
            "max" : [
                36.774757385253906,
                7.4500017166137695,
                4.456239700317383
            ],
            "min" : [
                -36.82524108886719,
                0.9000043869018555,
                4.0562238693237305
            ],
            "type" : "VEC3"
        },
        {
            "bufferView" : 23,
            "componentType" : 5126,
            "count" : 5584,
            "type" : "VEC3"
        },
        {
            "bufferView" : 24,
            "componentType" : 5126,
            "count" : 5584,
            "type" : "VEC2"
        },
        {
            "bufferView" : 25,
            "componentType" : 5123,
            "count" : 7560,
            "type" : "SCALAR"
        },
        {
            "bufferView" : 26,
            "componentType" : 5126,
            "count" : 7128,
            "max" : [
                35.57477951049805,
                7.45000696182251,
                4.112240791320801
            ],
            "min" : [
                -35.625221252441406,
                0.15000629425048828,
                4.072223663330078
            ],
            "type" : "VEC3"
        },
        {
            "bufferView" : 27,
            "componentType" : 5126,
            "count" : 7128,
            "type" : "VEC3"
        },
        {
            "bufferView" : 28,
            "componentType" : 5126,
            "count" : 7128,
            "type" : "VEC2"
        },
        {
            "bufferView" : 29,
            "componentType" : 5123,
            "count" : 9216,
            "type" : "SCALAR"
        },
        {
            "bufferView" : 30,
            "componentType" : 5126,
            "count" : 5326,
            "max" : [
                35.57477951049805,
                3.850344657897949,
                4.310622215270996
            ],
            "min" : [
                -35.625221252441406,
                2.6500062942504883,
                4.0562238693237305
            ],
            "type" : "VEC3"
        },
        {
            "bufferView" : 31,
            "componentType" : 5126,
            "count" : 5326,
            "type" : "VEC3"
        },
        {
            "bufferView" : 32,
            "componentType" : 5126,
            "count" : 5326,
            "type" : "VEC2"
        },
        {
            "bufferView" : 33,
            "componentType" : 5123,
            "count" : 7092,
            "type" : "SCALAR"
        }
    ],
    "bufferViews" : [
        {
            "buffer" : 0,
            "byteLength" : 936,
            "byteOffset" : 0
        },
        {
            "buffer" : 0,
            "byteLength" : 936,
            "byteOffset" : 936
        },
        {
            "buffer" : 0,
            "byteLength" : 624,
            "byteOffset" : 1872
        },
        {
            "buffer" : 0,
            "byteLength" : 216,
            "byteOffset" : 2496
        },
        {
            "buffer" : 0,
            "byteLength" : 37172,
            "byteOffset" : 2712
        },
        {
            "buffer" : 0,
            "byteLength" : 336,
            "byteOffset" : 39884
        },
        {
            "buffer" : 0,
            "byteLength" : 336,
            "byteOffset" : 40220
        },
        {
            "buffer" : 0,
            "byteLength" : 224,
            "byteOffset" : 40556
        },
        {
            "buffer" : 0,
            "byteLength" : 72,
            "byteOffset" : 40780
        },
        {
            "buffer" : 0,
            "byteLength" : 80272,
            "byteOffset" : 40852
        },
        {
            "buffer" : 0,
            "byteLength" : 67236,
            "byteOffset" : 121124
        },
        {
            "buffer" : 0,
            "byteLength" : 67236,
            "byteOffset" : 188360
        },
        {
            "buffer" : 0,
            "byteLength" : 44824,
            "byteOffset" : 255596
        },
        {
            "buffer" : 0,
            "byteLength" : 14688,
            "byteOffset" : 300420
        },
        {
            "buffer" : 0,
            "byteLength" : 187848,
            "byteOffset" : 315108
        },
        {
            "buffer" : 0,
            "byteLength" : 187848,
            "byteOffset" : 502956
        },
        {
            "buffer" : 0,
            "byteLength" : 125232,
            "byteOffset" : 690804
        },
        {
            "buffer" : 0,
            "byteLength" : 44376,
            "byteOffset" : 816036
        },
        {
            "buffer" : 0,
            "byteLength" : 4812,
            "byteOffset" : 860412
        },
        {
            "buffer" : 0,
            "byteLength" : 4812,
            "byteOffset" : 865224
        },
        {
            "buffer" : 0,
            "byteLength" : 3208,
            "byteOffset" : 870036
        },
        {
            "buffer" : 0,
            "byteLength" : 936,
            "byteOffset" : 873244
        },
        {
            "buffer" : 0,
            "byteLength" : 67008,
            "byteOffset" : 874180
        },
        {
            "buffer" : 0,
            "byteLength" : 67008,
            "byteOffset" : 941188
        },
        {
            "buffer" : 0,
            "byteLength" : 44672,
            "byteOffset" : 1008196
        },
        {
            "buffer" : 0,
            "byteLength" : 15120,
            "byteOffset" : 1052868
        },
        {
            "buffer" : 0,
            "byteLength" : 85536,
            "byteOffset" : 1067988
        },
        {
            "buffer" : 0,
            "byteLength" : 85536,
            "byteOffset" : 1153524
        },
        {
            "buffer" : 0,
            "byteLength" : 57024,
            "byteOffset" : 1239060
        },
        {
            "buffer" : 0,
            "byteLength" : 18432,
            "byteOffset" : 1296084
        },
        {
            "buffer" : 0,
            "byteLength" : 63912,
            "byteOffset" : 1314516
        },
        {
            "buffer" : 0,
            "byteLength" : 63912,
            "byteOffset" : 1378428
        },
        {
            "buffer" : 0,
            "byteLength" : 42608,
            "byteOffset" : 1442340
        },
        {
            "buffer" : 0,
            "byteLength" : 14184,
            "byteOffset" : 1484948
        }
    ],
    "samplers" : [
        {
            "magFilter" : 9729,
            "minFilter" : 9987
        }
    ],
    "buffers" : [
        {
            "byteLength" : 1499132,
            "uri" : "data:application/octet-stream;base64,"
        }
    ]
}
